<svg xmlns="http://www.w3.org/2000/svg" width="1200" height="1066" viewBox="0 0 1200 1066" role="img" aria-labelledby="title description">
  <title id="title">07Rinat07 GitHub engineering snapshot</title>
  <desc id="description">Current repository, community, language and recently active project metrics.</desc>
  <defs>
    <filter id="shadow" x="-20%" y="-20%" width="140%" height="140%">
      <feDropShadow dx="0" dy="8" stdDeviation="16" flood-color="#18181B" flood-opacity="0.06"/>
    </filter>
    <linearGradient id="accent" x1="0" y1="0" x2="1" y2="0">
      <stop offset="0" stop-color="#6D28D9"/>
      <stop offset="0.52" stop-color="#9333EA"/>
      <stop offset="1" stop-color="#C026D3"/>
    </linearGradient>
    <pattern id="dots" width="24" height="24" patternUnits="userSpaceOnUse">
      <circle cx="1" cy="1" r="1" fill="#D4D4D8" opacity="0.45"/>
    </pattern>
    <style>
      text { font-family: Inter, ui-sans-serif, -apple-system, BlinkMacSystemFont, "Segoe UI", sans-serif; fill: #18181B; }
      .title { font-size: 31px; font-weight: 750; letter-spacing: -0.7px; }
      .subtitle { font-size: 15px; fill: #71717A; }
      .eyebrow { font-size: 13px; font-weight: 720; letter-spacing: 1.15px; fill: #71717A; }
      .metric { font-size: 42px; font-weight: 780; letter-spacing: -1.1px; }
      .note { font-size: 14px; fill: #71717A; }
      .section-title { font-size: 17px; font-weight: 760; letter-spacing: 0.35px; }
      .section-note { font-size: 14px; fill: #71717A; }
      .row-title { font-size: 15px; font-weight: 700; }
      .row-meta { font-size: 13px; fill: #71717A; }
      .repo-title { font-size: 16px; font-weight: 740; }
      .repo-description { font-size: 14px; fill: #71717A; }
      .footer { font-size: 12px; fill: #A1A1AA; }
    </style>
  </defs>

  <rect width="1200" height="1066" rx="28" fill="#F7F7F8"/>
  <rect width="1200" height="1066" rx="28" fill="url(#dots)"/>
  <rect x="0" y="0" width="1200" height="6" rx="3" fill="url(#accent)"/>

  <g transform="translate(40 38)">
    <rect width="42" height="42" rx="13" fill="#18181B"/>
    <text x="21" y="27" text-anchor="middle" font-size="13" font-weight="800" style="fill:#FFFFFF">RS</text>
    <text x="58" y="20" class="title">Engineering snapshot</text>
    <text x="58" y="41" class="subtitle">Live signals from owned public repositories · profile active since Apr 2022</text>
  </g>
  <g transform="translate(964 44)">
    <rect width="196" height="34" rx="17" fill="#FFFFFF" stroke="#E4E4E7"/>
    <circle cx="20" cy="17" r="5" fill="#22C55E"/>
    <text x="35" y="22" font-size="14" font-weight="700">github.com/07Rinat07</text>
  </g>

  <g filter="url(#shadow)">
    <g transform="translate(38 112)">
      <rect width="262" height="154" rx="20" fill="#FFFFFF" stroke="#E4E4E7"/>
      <rect x="0" y="0" width="6" height="154" rx="3" fill="#6D28D9"/>
      <text x="24" y="38" class="eyebrow">PUBLIC PROJECTS</text>
      <text x="24" y="92" class="metric">92</text>
      <text x="24" y="130" class="note">Owned and maintained repositories</text>
    </g>
    <g transform="translate(320 112)">
      <rect width="262" height="154" rx="20" fill="#FFFFFF" stroke="#E4E4E7"/>
      <rect x="0" y="0" width="6" height="154" rx="3" fill="#7C3AED"/>
      <text x="24" y="38" class="eyebrow">ACTIVE · 90 DAYS</text>
      <text x="24" y="92" class="metric">7</text>
      <text x="24" y="130" class="note">Projects updated recently</text>
    </g>
    <g transform="translate(602 112)">
      <rect width="262" height="154" rx="20" fill="#FFFFFF" stroke="#E4E4E7"/>
      <rect x="0" y="0" width="6" height="154" rx="3" fill="#8B5CF6"/>
      <text x="24" y="38" class="eyebrow">CORE LANGUAGES</text>
      <text x="24" y="92" class="metric">12</text>
      <text x="24" y="130" class="note">Primary languages across projects</text>
    </g>
    <g transform="translate(884 112)">
      <rect width="262" height="154" rx="20" fill="#FFFFFF" stroke="#E4E4E7"/>
      <rect x="0" y="0" width="6" height="154" rx="3" fill="#A855F7"/>
      <text x="24" y="38" class="eyebrow">GITHUB JOURNEY</text>
      <text x="24" y="92" class="metric">4+ yrs</text>
      <text x="24" y="130" class="note">Building in public since Apr 2022</text>
    </g></g>

  <g filter="url(#shadow)">
    <rect x="38" y="290" width="488" height="728" rx="22" fill="#FFFFFF" stroke="#E4E4E7"/>
    <rect x="546" y="290" width="616" height="728" rx="22" fill="#FFFFFF" stroke="#E4E4E7"/>
  </g>

  <text x="66" y="334" class="section-title">TECHNOLOGY FOOTPRINT</text>
  <text x="66" y="359" class="section-note">Primary languages across owned repositories</text>

    <text x="66" y="392" class="row-title">PHP</text>
    <text x="485" y="392" text-anchor="end" class="row-meta">56 projects</text>
    <rect x="66" y="402" width="419" height="8" rx="4" fill="#F0F0F2"/>
    <rect x="66" y="402" width="210" height="8" rx="4" fill="#777BB4"/>
    <text x="66" y="444" class="row-title">JavaScript</text>
    <text x="485" y="444" text-anchor="end" class="row-meta">14 projects</text>
    <rect x="66" y="454" width="419" height="8" rx="4" fill="#F0F0F2"/>
    <rect x="66" y="454" width="52" height="8" rx="4" fill="#D6B700"/>
    <text x="66" y="496" class="row-title">Python</text>
    <text x="485" y="496" text-anchor="end" class="row-meta">5 projects</text>
    <rect x="66" y="506" width="419" height="8" rx="4" fill="#F0F0F2"/>
    <rect x="66" y="506" width="24" height="8" rx="4" fill="#3776AB"/>
    <text x="66" y="548" class="row-title">Vue</text>
    <text x="485" y="548" text-anchor="end" class="row-meta">4 projects</text>
    <rect x="66" y="558" width="419" height="8" rx="4" fill="#F0F0F2"/>
    <rect x="66" y="558" width="24" height="8" rx="4" fill="#42B883"/>
    <text x="66" y="600" class="row-title">HTML</text>
    <text x="485" y="600" text-anchor="end" class="row-meta">3 projects</text>
    <rect x="66" y="610" width="419" height="8" rx="4" fill="#F0F0F2"/>
    <rect x="66" y="610" width="24" height="8" rx="4" fill="#E34F26"/>
    <text x="66" y="652" class="row-title">CSS</text>
    <text x="485" y="652" text-anchor="end" class="row-meta">3 projects</text>
    <rect x="66" y="662" width="419" height="8" rx="4" fill="#F0F0F2"/>
    <rect x="66" y="662" width="24" height="8" rx="4" fill="#1572B6"/>
    <text x="66" y="704" class="row-title">Blade</text>
    <text x="485" y="704" text-anchor="end" class="row-meta">2 projects</text>
    <rect x="66" y="714" width="419" height="8" rx="4" fill="#F0F0F2"/>
    <rect x="66" y="714" width="24" height="8" rx="4" fill="#6D28D9"/>
    <text x="66" y="756" class="row-title">Lasso</text>
    <text x="485" y="756" text-anchor="end" class="row-meta">1 projects</text>
    <rect x="66" y="766" width="419" height="8" rx="4" fill="#F0F0F2"/>
    <rect x="66" y="766" width="24" height="8" rx="4" fill="#6D28D9"/>
    <text x="66" y="808" class="row-title">Kotlin</text>
    <text x="485" y="808" text-anchor="end" class="row-meta">1 projects</text>
    <rect x="66" y="818" width="419" height="8" rx="4" fill="#F0F0F2"/>
    <rect x="66" y="818" width="24" height="8" rx="4" fill="#7F52FF"/>
    <text x="66" y="860" class="row-title">C++</text>
    <text x="485" y="860" text-anchor="end" class="row-meta">1 projects</text>
    <rect x="66" y="870" width="419" height="8" rx="4" fill="#F0F0F2"/>
    <rect x="66" y="870" width="24" height="8" rx="4" fill="#6D28D9"/>
    <text x="66" y="912" class="row-title">Less</text>
    <text x="485" y="912" text-anchor="end" class="row-meta">1 projects</text>
    <rect x="66" y="922" width="419" height="8" rx="4" fill="#F0F0F2"/>
    <rect x="66" y="922" width="24" height="8" rx="4" fill="#6D28D9"/>
    <text x="66" y="964" class="row-title">Dockerfile</text>
    <text x="485" y="964" text-anchor="end" class="row-meta">1 projects</text>
    <rect x="66" y="974" width="419" height="8" rx="4" fill="#F0F0F2"/>
    <rect x="66" y="974" width="24" height="8" rx="4" fill="#6D28D9"/>

  <text x="574" y="334" class="section-title">RECENTLY ACTIVE</text>
  <text x="574" y="359" class="section-note">Latest public projects by push activity</text>

    <g transform="translate(0 384)">
      <circle cx="666" cy="7" r="7" fill="#6D28D9"/>
      <text x="684" y="12" class="repo-title">GEOLOG_GASRATIO_Pixler</text>
      <text x="1118" y="12" text-anchor="end" class="row-meta">Lasso · Jul 23, 2026</text>
      <text x="666" y="38" class="repo-description">В разработке. Расширяемое desktop-приложение дл…</text>
      <line x1="650" y1="80" x2="1122" y2="80" stroke="#ECECEF"/>
    </g>
    <g transform="translate(0 478)">
      <circle cx="666" cy="7" r="7" fill="#3776AB"/>
      <text x="684" y="12" class="repo-title">Gas-Ratio-pro</text>
      <text x="1118" y="12" text-anchor="end" class="row-meta">Python · Jul 18, 2026</text>
      <text x="666" y="38" class="repo-description">В активной разработке аналог PETREL. Gas Ratio&amp;…</text>
      <line x1="650" y1="80" x2="1122" y2="80" stroke="#ECECEF"/>
    </g>
    <g transform="translate(0 572)">
      <circle cx="666" cy="7" r="7" fill="#7F52FF"/>
      <text x="684" y="12" class="repo-title">iptv-tv-app</text>
      <text x="1118" y="12" text-anchor="end" class="row-meta">Kotlin · Jun 28, 2026</text>
      <text x="666" y="38" class="repo-description">Приложение в РАЗРАБОТКЕ. Пока адаптировал на ан…</text>
      <line x1="650" y1="80" x2="1122" y2="80" stroke="#ECECEF"/>
    </g>
    <g transform="translate(0 666)">
      <circle cx="666" cy="7" r="7" fill="#E34F26"/>
      <text x="684" y="12" class="repo-title">univer_kaziitu</text>
      <text x="1118" y="12" text-anchor="end" class="row-meta">HTML · Jun 24, 2026</text>
      <text x="666" y="38" class="repo-description">Казахстанский Университет Иновационных и Телеко…</text>
      <line x1="650" y1="80" x2="1122" y2="80" stroke="#ECECEF"/>
    </g>
    <g transform="translate(0 760)">
      <circle cx="666" cy="7" r="7" fill="#6D28D9"/>
      <text x="684" y="12" class="repo-title">space-dodger-deluxe</text>
      <text x="1118" y="12" text-anchor="end" class="row-meta">C++ · Jun 14, 2026</text>
      <text x="666" y="38" class="repo-description">В разработке.Аркадная игра на C++ (с использова…</text>
      <line x1="650" y1="80" x2="1122" y2="80" stroke="#ECECEF"/>
    </g>
    <g transform="translate(0 854)">
      <circle cx="666" cy="7" r="7" fill="#777BB4"/>
      <text x="684" y="12" class="repo-title">parserYandexMap</text>
      <text x="1118" y="12" text-anchor="end" class="row-meta">PHP · Jun 13, 2026</text>
      <text x="666" y="38" class="repo-description">Тестовое задание: интеграция с Яндекс.Картами С…</text>

    </g>

  <text x="40" y="1050" class="footer">Generated from the GitHub API · Jul 23, 2026 · 06:09 UTC</text>
  <text x="1160" y="1050" text-anchor="end" class="footer">Auto-refreshed daily</text>
</svg>
